# xmcd
#
# Track frame offsets:
#	150
#	10718
#	19884
#	30412
#	41714
#	51979
#	62638
#	73682
#	84580
#	97462
#	106917
#	119794
#	130878
#	141074
#	152382
#	164991
#
# Disc length: 2353 seconds
#
# Revision: 1
# Processed by: cddbd v1.5.1PL0 Copyright (c) Steve Scherf et al.
# Submitted via: audiograbber 1.82.01
#
DISCID=e3092f10
DTITLE=Patsy Cline - Patsy Cline
DYEAR=1900
DGENRE=
TTITLE0=I Can See An Angel
TTITLE1=Come On In
TTITLE2=Gotta Lot Of Rhythm
TTITLE3=I've Loved And Lost Again
TTITLE4=I Love You Honey
TTITLE5=Honky Tonk Merry Go Around
TTITLE6=Don't Ever Leave Me Again
TTITLE7=I Cried All The Way To The Alter
TTITLE8=If I Could See The World
TTITLE9=I'm Moving Along
TTITLE10=Life's Railway To Heaven
TTITLE11=Just Out Of Reach
TTITLE12=Too Many Secrets
TTITLE13=The Heart You Break Maybe Yours
TTITLE14=Yes, I Understand
TTITLE15=Never No More
EXTD=
EXTT0=
EXTT1=
EXTT2=
EXTT3=
EXTT4=
EXTT5=
EXTT6=
EXTT7=
EXTT8=
EXTT9=
EXTT10=
EXTT11=
EXTT12=
EXTT13=
EXTT14=
EXTT15=
PLAYORDER=
